# xmcd
#
# Track frame offsets:
#	150
#	16885
#	34805
#	48607
#	70205
#	93567
#	106554
#	122079
#	138390
#	154309
#	170367
#	187357
#	198587
#	224917
#
# Disc length: 3304 seconds
#
# Revision: 9
# Processed by: cddbd v1.5.2PL0 Copyright (c) Steve Scherf et al.
# Submitted via: audiograbber 1.83.01
#
DISCID=d40ce60e
DTITLE=The Whitlams - Love This City
DYEAR=1999
DGENRE=Pop-Folk
TTITLE0=Make The World Safe
TTITLE1=Thankyou (For Loving Me At My Worst)
TTITLE2=Chunky Chunky Air Guitar
TTITLE3=Pretty As You
TTITLE4=You Gotta Love This City
TTITLE5=God Drinks At The Sando (1997)
TTITLE6=Blow Up The Pokies (1999)
TTITLE7=400 Miles From Darwin
TTITLE8=Time
TTITLE9=Made Me Hard
TTITLE10=High Ground
TTITLE11=Unreliable
TTITLE12=Her Floor Is My Ceiling
TTITLE13=There's No-one
EXTD=
EXTT0=
EXTT1=
EXTT2=
EXTT3=
EXTT4=
EXTT5=
EXTT6=
EXTT7=
EXTT8=
EXTT9=
EXTT10=
EXTT11=
EXTT12=
EXTT13=
PLAYORDER=
